<svg width="72" height="72" viewBox="0 0 72 72" fill="none" xmlns="http://www.w3.org/2000/svg">
<g clip-path="url(#clip0_143_9549)">
<path d="M36 29.1094C42.7461 29.1094 48.2344 23.6211 48.2344 16.875C48.2344 10.1289 42.7461 4.64062 36 4.64062C29.2539 4.64062 23.7656 10.1289 23.7656 16.875C23.7656 23.6211 29.2539 29.1094 36 29.1094ZM36 8.85938C40.4198 8.85938 44.0156 12.4552 44.0156 16.875C44.0156 21.2948 40.4198 24.8906 36 24.8906C31.5802 24.8906 27.9844 21.2948 27.9844 16.875C27.9844 12.4552 31.5802 8.85938 36 8.85938Z" fill="#E9E9E9"/>
<path d="M60.75 29.1094C65.0147 29.1094 68.4844 25.6397 68.4844 21.375C68.4844 17.1103 65.0147 13.6406 60.75 13.6406C56.4853 13.6406 53.0156 17.1103 53.0156 21.375C53.0156 25.6397 56.4853 29.1094 60.75 29.1094ZM60.75 17.8594C62.6885 17.8594 64.2656 19.4365 64.2656 21.375C64.2656 23.3135 62.6885 24.8906 60.75 24.8906C58.8115 24.8906 57.2344 23.3135 57.2344 21.375C57.2344 19.4365 58.8115 17.8594 60.75 17.8594Z" fill="#E9E9E9"/>
<path d="M62.4516 33.8906H59.1891C55.3445 33.8906 52.0258 36.162 50.5135 39.4245C47.3999 36.0256 42.9276 33.8906 37.9658 33.8906H34.0343C29.0725 33.8906 24.6002 36.0256 21.4867 39.4245C19.9742 36.162 16.6555 33.8906 12.8109 33.8906H9.54844C4.28344 33.8906 0 38.1482 0 43.3814V58.7391C0 61.011 1.85541 62.8594 4.13606 62.8594H17.0352C17.2515 65.3766 19.3681 67.3594 21.9406 67.3594H50.0595C52.6319 67.3594 54.7485 65.3766 54.965 62.8594H67.7167C70.0786 62.8594 72.0001 60.9455 72.0001 58.5928V43.3814C72 38.1482 67.7166 33.8906 62.4516 33.8906ZM4.21875 43.3814C4.21875 40.4744 6.60966 38.1094 9.54844 38.1094H12.8109C15.7497 38.1094 18.1406 40.4744 18.1406 43.3814V44.8258C16.7221 48.5191 17.0156 50.7326 17.0156 58.6406H4.21875V43.3814ZM50.7656 62.4345C50.7656 62.8239 50.4489 63.1406 50.0595 63.1406H21.9405C21.5511 63.1406 21.2344 62.8238 21.2344 62.4345V50.9093C21.2344 43.8514 26.9764 38.1094 34.0342 38.1094H37.9657C45.0236 38.1094 50.7656 43.8514 50.7656 50.9092V62.4345ZM67.7812 58.5928C67.7812 58.6655 68.5676 58.6406 54.9844 58.6406C54.9844 50.6741 55.2756 48.5131 53.8594 44.8258V43.3814C53.8594 40.4744 56.2503 38.1094 59.1891 38.1094H62.4516C65.3903 38.1094 67.7812 40.4744 67.7812 43.3814V58.5928Z" fill="#E9E9E9"/>
<path d="M11.25 29.1094C15.5147 29.1094 18.9844 25.6397 18.9844 21.375C18.9844 17.1103 15.5147 13.6406 11.25 13.6406C6.98527 13.6406 3.51562 17.1103 3.51562 21.375C3.51562 25.6397 6.98527 29.1094 11.25 29.1094ZM11.25 17.8594C13.1885 17.8594 14.7656 19.4365 14.7656 21.375C14.7656 23.3135 13.1885 24.8906 11.25 24.8906C9.31148 24.8906 7.73438 23.3135 7.73438 21.375C7.73438 19.4365 9.31148 17.8594 11.25 17.8594Z" fill="#E9E9E9"/>
</g>
<defs>
<clipPath id="clip0_143_9549">
<rect width="72" height="72" fill="white"/>
</clipPath>
</defs>
</svg>
