<svg width="72" height="72" viewBox="0 0 72 72" fill="none" xmlns="http://www.w3.org/2000/svg">
<path d="M67.1826 29.8555C64.7025 17.2827 54.7182 7.29759 42.1445 4.81753C41.4653 2.05537 38.9687 0 36 0C33.0313 0 30.5347 2.05537 29.8555 4.81739C17.2818 7.29759 7.29745 17.2825 4.81739 29.8555C2.05523 30.5347 0 33.0313 0 36C0 38.9687 2.05523 41.4653 4.81739 42.1445C7.29745 54.7173 17.2818 64.7024 29.8555 67.1825C30.5347 69.9446 33.0313 72 36 72C38.9687 72 41.4653 69.9446 42.1445 67.1826C54.718 64.7025 64.7025 54.7175 67.1826 42.1446C69.9448 41.4653 72 38.9687 72 36C72 33.0313 69.9448 30.5347 67.1826 29.8555ZM36 4.21875C37.1631 4.21875 38.1094 5.16502 38.1094 6.32812C38.1094 7.49123 37.1631 8.4375 36 8.4375C34.8369 8.4375 33.8906 7.49123 33.8906 6.32812C33.8906 5.16502 34.8369 4.21875 36 4.21875ZM6.32812 38.1094C5.16502 38.1094 4.21875 37.1631 4.21875 36C4.21875 34.8369 5.16502 33.8906 6.32812 33.8906C7.49123 33.8906 8.4375 34.8369 8.4375 36C8.4375 37.1631 7.49123 38.1094 6.32812 38.1094ZM36 67.7812C34.8369 67.7812 33.8906 66.835 33.8906 65.6719C33.8906 64.5088 34.8369 63.5625 36 63.5625C37.1631 63.5625 38.1094 64.5088 38.1094 65.6719C38.1094 66.835 37.1631 67.7812 36 67.7812ZM62.9644 41.7184C60.7146 52.3098 52.3105 60.7146 41.7184 62.9646C40.7019 60.8261 38.5211 59.3438 36 59.3438C33.4789 59.3438 31.2981 60.8261 30.2816 62.9646C19.6896 60.7146 11.2854 52.31 9.03558 41.7185C11.1741 40.7018 12.6562 38.521 12.6562 36C12.6562 33.479 11.1741 31.2982 9.03558 30.2816C11.2854 19.6902 19.6895 11.2856 30.2816 9.03558C31.2981 11.1739 33.4789 12.6562 36 12.6562C38.5211 12.6562 40.7019 11.1739 41.7184 9.03544C52.3104 11.2854 60.7146 19.69 62.9644 30.2815C60.8259 31.2982 59.3438 33.479 59.3438 36C59.3438 38.521 60.8259 40.7018 62.9644 41.7184ZM65.6719 38.1094C64.5088 38.1094 63.5625 37.1631 63.5625 36C63.5625 34.8369 64.5088 33.8906 65.6719 33.8906C66.835 33.8906 67.7812 34.8369 67.7812 36C67.7812 37.1631 66.835 38.1094 65.6719 38.1094Z" fill="#E9E9E9"/>
</svg>
