<svg width="72" height="72" viewBox="0 0 72 72" fill="none" xmlns="http://www.w3.org/2000/svg">
<g clip-path="url(#clip0_143_9541)">
<path d="M70.5834 33.4843L59.0208 27.7032L70.5834 21.9217C72.6516 20.8878 72.6538 17.9259 70.5834 16.8905L37.3957 0.296632C36.6036 -0.0988774 35.672 -0.0988774 34.8799 0.296632L1.69222 16.8905C-0.375963 17.9248 -0.378161 20.8867 1.69222 21.9217L13.2548 27.7032L1.69222 33.4843C-0.375963 34.5186 -0.378161 37.48 1.69222 38.5155L13.2548 44.2971L1.69222 50.0781C-0.375963 51.1125 -0.378161 54.0738 1.69222 55.1093L34.8799 71.7031C35.6703 72.0981 36.602 72.0997 37.3957 71.7031L70.5834 55.1093C72.6516 54.0749 72.6538 51.1136 70.5834 50.0781L59.0208 44.2971L70.5834 38.5155C72.6516 37.4817 72.6538 34.5197 70.5834 33.4843V33.4843ZM36.1378 5.95681L63.0363 19.4063L36.1378 32.8553L9.23931 19.4063L36.1378 5.95681ZM63.0363 52.594L36.1378 66.043L9.23931 52.594L19.544 47.4414L34.8799 55.1093C35.6709 55.5043 36.602 55.5059 37.3957 55.1093L52.7316 47.4414L63.0363 52.594ZM36.1378 49.4491L9.23931 36.0002L19.544 30.8475L34.8799 38.5155C35.6709 38.9104 36.602 38.9121 37.3957 38.5155L52.7316 30.8475L63.0363 36.0002L36.1378 49.4491Z" fill="#E9E9E9"/>
</g>
<defs>
<clipPath id="clip0_143_9541">
<rect width="72" height="72" fill="white"/>
</clipPath>
</defs>
</svg>
