<svg width="72" height="72" viewBox="0 0 72 72" fill="none" xmlns="http://www.w3.org/2000/svg">
<path d="M63.5321 62.3787L56.4461 45.8603C56.519 45.6667 56.5848 45.4703 56.6434 45.2711C58.1263 44.5351 59.3657 43.377 60.2046 41.924C61.0437 40.4708 61.4268 38.8183 61.3229 37.1661C62.4645 35.9672 63.2331 34.4551 63.5246 32.8026C63.8159 31.1501 63.6107 29.4663 62.9479 27.9492C63.6107 26.4322 63.8159 24.7483 63.5246 23.0958C63.5246 23.0958 63.5246 23.0957 63.5245 23.0957C63.2331 21.4433 62.4645 19.9312 61.3229 18.7325C61.4268 17.0802 61.0437 15.4277 60.2046 13.9746C59.3658 12.5215 58.1265 11.3636 56.6434 10.6273C56.176 9.03923 55.2508 7.61752 53.9654 6.53878C52.6798 5.46019 51.1193 4.79587 49.4741 4.61152C48.4917 3.27881 47.1361 2.25942 45.5592 1.68567C43.9824 1.11164 42.2884 1.02094 40.6795 1.41061C39.3006 0.494438 37.6782 0 36.0001 0C34.3222 0 32.6995 0.494438 31.3207 1.41061C29.7112 1.02094 28.0177 1.11164 26.4411 1.68553C24.8643 2.25942 23.5085 3.27881 22.5261 4.61152C20.881 4.79616 19.3202 5.46033 18.0347 6.53892C16.7494 7.61752 15.8242 9.03923 15.3568 10.6273C13.8738 11.3635 12.6344 12.5215 11.7956 13.9745C10.9565 15.4277 10.5734 17.0802 10.6773 18.7325C9.53576 19.9312 8.7671 21.4433 8.47558 23.0958C8.18435 24.7483 8.38952 26.4322 9.05229 27.9492C8.38952 29.4663 8.18435 31.1503 8.47572 32.8028C8.7671 34.4551 9.53576 35.9672 10.6773 37.1661C10.5734 38.8183 10.9565 40.4707 11.7956 41.9238C12.6346 43.377 13.8739 44.535 15.3568 45.2711C15.4154 45.4703 15.4812 45.6668 15.5541 45.8603L8.46813 62.3787C8.13176 63.1627 8.30093 64.0723 8.89662 64.683C9.49244 65.294 10.3976 65.4858 11.1895 65.169L20.3573 61.5054L24.0208 70.6733C24.3374 71.4656 25.1 71.989 25.953 71.9999C25.9619 72 25.9709 72 25.9796 72C26.8222 72 27.5851 71.4981 27.918 70.7221L34.3471 55.7349C34.8873 55.8422 35.4404 55.8983 36 55.8983C36.5595 55.8983 37.1126 55.842 37.6529 55.7347L44.082 70.722C44.4148 71.4981 45.1777 71.9999 46.0203 71.9999C46.0292 71.9999 46.0381 71.9999 46.0469 71.9997C46.9 71.989 47.6626 71.4655 47.9791 70.6732L51.6427 61.5053L60.8104 65.1689C61.6027 65.4855 62.5076 65.2937 63.1033 64.6829C63.6994 64.0723 63.8685 63.1627 63.5321 62.3787V62.3787ZM36.0001 51.6797C34.9442 51.6797 33.9322 51.2896 33.1506 50.581C32.7553 50.2227 32.2482 50.0344 31.7336 50.0344C31.4652 50.0344 31.1948 50.0856 30.9373 50.1906C29.9606 50.5887 28.8761 50.6095 27.8839 50.2485C26.8916 49.8873 26.0741 49.1745 25.5819 48.2414C25.2033 47.5237 24.4472 47.0886 23.6354 47.1177C22.5821 47.1565 21.5553 46.8065 20.7465 46.1278C19.9375 45.449 19.4131 44.4995 19.2698 43.4544C19.1596 42.6503 18.5978 41.9808 17.825 41.7327C16.8207 41.4101 15.9769 40.7288 15.449 39.8142C14.921 38.8998 14.7529 37.8284 14.9757 36.7973C15.1473 36.0041 14.8483 35.183 14.207 34.6853C13.3736 34.0386 12.8136 33.1096 12.6302 32.0698C12.4468 31.0299 12.6554 29.9655 13.2175 29.0727C13.6497 28.3859 13.6497 27.5119 13.2175 26.8252C12.6554 25.9324 12.447 24.868 12.6302 23.8282C12.8136 22.7883 13.3736 21.8593 14.207 21.2126C14.8483 20.715 15.1473 19.8938 14.9757 19.1005C14.7529 18.0695 14.921 16.998 15.449 16.0836C15.9769 15.1691 16.8208 14.4879 17.8252 14.1652C18.5978 13.9168 19.1596 13.2476 19.2698 12.4435C19.4131 11.3984 19.9375 10.4489 20.7464 9.7702C21.5553 9.09127 22.5811 8.73942 23.6354 8.7802C24.4483 8.80861 25.2031 8.37422 25.5819 7.65647C26.0741 6.72328 26.8916 6.01059 27.8839 5.64947C28.8761 5.28834 29.9604 5.30902 30.9373 5.70727C31.6891 6.01369 32.5493 5.86209 33.1506 5.31703C33.9322 4.60884 34.9442 4.21875 36.0001 4.21875C37.0561 4.21875 38.068 4.60884 38.8496 5.31745C39.4509 5.86252 40.3115 6.01425 41.0629 5.70769C42.0395 5.3093 43.1242 5.28877 44.1164 5.65003C45.1088 6.01102 45.9261 6.72384 46.4183 7.65689C46.7969 8.37478 47.5534 8.81156 48.3648 8.78062C49.4181 8.74041 50.445 9.09197 51.2537 9.77048C52.0627 10.4493 52.5871 11.3988 52.7304 12.4439C52.8407 13.248 53.4025 13.9174 54.175 14.1656C55.1795 14.4883 56.0234 15.1695 56.5512 16.0841C57.0792 16.9985 57.2473 18.0699 57.0245 19.101C56.853 19.8942 57.1519 20.7153 57.7932 21.213C58.6267 21.8597 59.1866 22.7887 59.37 23.8286H59.3702C59.5534 24.8685 59.3448 25.9328 58.7828 26.8256C58.3505 27.5124 58.3505 28.3864 58.7828 29.0731C59.3448 29.9659 59.5533 31.0303 59.37 32.0701C59.1866 33.11 58.6267 34.039 57.7932 34.6857C57.1519 35.1833 56.853 36.0045 57.0245 36.7978C57.2473 37.8288 57.0792 38.9003 56.5512 39.8147C56.0231 40.7292 55.1794 41.4105 54.1752 41.7331C53.4025 41.9813 52.8407 42.6507 52.7304 43.4548C52.5871 44.4999 52.0627 45.4494 51.2537 46.1282C50.4448 46.8069 49.415 47.1592 48.3648 47.1181C47.5537 47.0893 46.797 47.5241 46.4183 48.2418C45.9261 49.175 45.1087 49.8877 44.1164 50.2488C43.1243 50.6098 42.0397 50.5893 41.0629 50.191C40.311 49.8843 39.4508 50.0361 38.8496 50.5813C38.068 51.2896 37.0561 51.6797 36.0001 51.6797V51.6797ZM26.0485 64.379L23.4919 57.9812C23.2844 57.4619 22.879 57.0461 22.3647 56.8254C22.0993 56.7115 21.8165 56.6546 21.5332 56.6546C21.2675 56.6546 21.0019 56.7046 20.7505 56.8052L14.3527 59.3617L18.4906 49.7157C19.6816 50.5845 21.0705 51.1238 22.526 51.2869C23.5084 52.6195 24.8642 53.639 26.441 54.213C27.6587 54.6562 28.9458 54.8097 30.21 54.678L26.0485 64.379ZM51.2496 56.8052C50.7302 56.5975 50.1495 56.6048 49.6354 56.8254C49.1213 57.0461 48.7157 57.4618 48.5081 57.9812L45.9516 64.379L41.7899 54.678C43.0541 54.8097 44.3414 54.6562 45.5592 54.213C47.1359 53.639 48.4917 52.6195 49.4741 51.2869C50.9294 51.1237 52.3184 50.5844 53.5095 49.7156L57.6474 59.3616L51.2496 56.8052Z" fill="#E9E9E9"/>
<path d="M53.5635 27.5274C53.5635 17.8429 45.6846 9.96387 36 9.96387C26.3155 9.96387 18.4365 17.8429 18.4365 27.5274C18.4365 37.2118 26.3156 45.0909 36 45.0909C45.6844 45.0909 53.5635 37.2118 53.5635 27.5274ZM36 14.1826C43.3582 14.1826 49.3448 20.169 49.3448 27.5274C49.3448 34.8857 43.3584 40.8721 36 40.8721C28.6417 40.8721 22.6553 34.8857 22.6553 27.5274C22.6553 20.169 28.6418 14.1826 36 14.1826Z" fill="#E9E9E9"/>
<path d="M32.677 33.0729C33.0728 33.4688 33.6096 33.6908 34.1684 33.6908C34.1809 33.6908 34.1936 33.6907 34.2063 33.6906C34.7787 33.6803 35.3225 33.4377 35.7125 33.0187L43.2598 24.9102C44.0536 24.0576 44.0058 22.7228 43.1529 21.9291C42.3005 21.1354 40.9655 21.1832 40.1718 22.036L34.1141 28.544L31.7758 26.2058C30.9522 25.3822 29.6165 25.3822 28.7928 26.2058C27.969 27.0294 27.969 28.3651 28.7928 29.1889L32.677 33.0729Z" fill="#E9E9E9"/>
</svg>
